<svg width="25" height="24" viewBox="0 0 25 24" fill="none" xmlns="http://www.w3.org/2000/svg">
<g id="vuesax/outline/user">
<g id="vuesax/outline/user_2">
<g id="user">
<path id="Vector" d="M12.5 12.75C9.33 12.75 6.75 10.17 6.75 7C6.75 3.83 9.33 1.25 12.5 1.25C15.67 1.25 18.25 3.83 18.25 7C18.25 10.17 15.67 12.75 12.5 12.75ZM12.5 2.75C10.16 2.75 8.25 4.66 8.25 7C8.25 9.34 10.16 11.25 12.5 11.25C14.84 11.25 16.75 9.34 16.75 7C16.75 4.66 14.84 2.75 12.5 2.75Z" fill="white"/>
<path id="Vector_2" d="M21.0901 22.75C20.6801 22.75 20.3401 22.41 20.3401 22C20.3401 18.55 16.8202 15.75 12.5002 15.75C8.18015 15.75 4.66016 18.55 4.66016 22C4.66016 22.41 4.32016 22.75 3.91016 22.75C3.50016 22.75 3.16016 22.41 3.16016 22C3.16016 17.73 7.35015 14.25 12.5002 14.25C17.6502 14.25 21.8401 17.73 21.8401 22C21.8401 22.41 21.5001 22.75 21.0901 22.75Z" fill="white"/>
</g>
</g>
</g>
</svg>
