<svg width="208" height="216" viewBox="0 0 208 216" fill="none" xmlns="http://www.w3.org/2000/svg">
<g id="Group">
<path id="Vector" d="M188.558 26.7507C175.158 11.3576 156.195 1.92047 135.841 0.515263C115.486 -0.889947 95.4077 5.85181 80.0212 19.2576C54.3155 41.6571 46.4162 78.8973 60.8154 109.829C63.7067 116.026 67.4139 121.809 71.8384 127.023L72.7835 128.144L2.32221 202.96C1.03371 204.348 0.346076 206.19 0.409274 208.083C0.472473 209.977 1.28137 211.768 2.65957 213.067C4.03778 214.367 5.87347 215.068 7.76632 215.018C9.65917 214.969 11.4556 214.172 12.7639 212.802L83.2079 137.998L84.3846 138.88C99.5864 150.288 118.47 155.664 137.398 153.971C156.325 152.278 173.957 143.636 186.895 129.71C199.832 115.784 207.161 97.5604 207.469 78.55C207.776 59.5397 201.041 41.088 188.56 26.7507H188.558ZM192.976 81.6123C191.885 97.4188 184.846 112.224 173.278 123.044C161.71 133.864 146.473 139.895 130.637 139.921C129.175 139.921 127.707 139.868 126.235 139.763C115.956 139.065 106.008 135.84 97.273 130.373C88.5381 124.907 81.2862 117.369 76.1607 108.426C71.0351 99.4842 68.1943 89.4147 67.89 79.1109C67.5857 68.8071 69.8274 58.5874 74.4163 49.3581C79.0052 40.1287 85.7995 32.175 94.1967 26.2021C102.594 20.2293 112.334 16.422 122.555 15.1178C132.775 13.8137 143.158 15.053 152.785 18.7258C162.412 22.3986 170.984 28.3915 177.742 36.1729C183.155 42.3645 187.289 49.568 189.904 57.3673C192.518 65.1665 193.562 73.407 192.976 81.6123Z" fill="#417F56"/>
</g>
</svg>
