<svg width="84" height="114" viewBox="0 0 84 114" fill="none" xmlns="http://www.w3.org/2000/svg">
<rect width="84" height="114" fill="#1E1E1E"/>
<g id="Desktop/Pop up/No result" clip-path="url(#clip0_5_57)">
<rect width="1440" height="1024" transform="translate(-525 -430)" fill="white"/>
<g id="Match not found" clip-path="url(#clip1_5_57)">
<g id="Group">
<path id="Vector" d="M195 226.976C290.206 226.976 367.386 149.756 367.386 54.5C367.386 -40.7559 290.206 -117.976 195 -117.976C99.7941 -117.976 22.6143 -40.7559 22.6143 54.5C22.6143 149.756 99.7941 226.976 195 226.976Z" fill="white"/>
<path id="Vector_2" d="M195 226.976C290.206 226.976 367.386 149.756 367.386 54.5C367.386 -40.7559 290.206 -117.976 195 -117.976C99.7941 -117.976 22.6143 -40.7559 22.6143 54.5C22.6143 149.756 99.7941 226.976 195 226.976Z" fill="#E5F2E9"/>
<g id="Group_2">
<path id="Vector_3" d="M82.9659 113.081L0.525391 112.831L0.864591 0.778809L57.8703 0.951655L83.2279 26.477L82.9659 113.081Z" fill="white"/>
<path id="Vector_4" d="M57.8702 0.95166L57.793 26.3998L83.2278 26.477L57.8702 0.95166Z" fill="#CAE4D3"/>
<path id="Vector_5" d="M83.7464 26.4454C83.7432 26.3995 83.7342 26.3541 83.7196 26.3104C83.7138 26.2936 83.7096 26.2773 83.7023 26.2605C83.6777 26.2034 83.643 26.1512 83.5999 26.1066L58.2422 0.581243C58.1976 0.537325 58.1455 0.501743 58.0884 0.476174C58.0724 0.469359 58.0561 0.46339 58.0396 0.458305C57.9955 0.442932 57.9496 0.433745 57.903 0.430994C57.892 0.430994 57.882 0.424164 57.871 0.424164L0.865855 0.253418C0.726595 0.253418 0.593039 0.308767 0.494568 0.40729C0.396097 0.505813 0.340776 0.639439 0.340776 0.778771L0 112.83C0 112.969 0.0553206 113.103 0.153792 113.201C0.252263 113.3 0.385819 113.355 0.525079 113.355L82.9624 113.607C83.1017 113.607 83.2352 113.551 83.3337 113.453C83.4322 113.354 83.4875 113.221 83.4875 113.081L83.75 26.477C83.7527 26.467 83.7469 26.457 83.7464 26.4454ZM58.3887 2.22192L70.098 14.004L81.9616 25.9463L58.3194 25.8744L58.3887 2.22192ZM1.05016 112.308L1.38621 1.3057L57.3412 1.47539L57.2661 26.3981C57.2661 26.5375 57.3214 26.6711 57.4199 26.7696C57.5184 26.8682 57.6519 26.9235 57.7912 26.9235L82.7009 26.9992L82.4421 112.553L1.05016 112.308Z" fill="#353535"/>
</g>
<g id="Group_3">
<path id="Vector_6" d="M251.558 -8.24927C238.158 -23.6424 219.195 -33.0795 198.841 -34.4847C178.486 -35.8899 158.408 -29.1482 143.021 -15.7424C117.315 6.6571 109.416 43.8973 123.815 74.8285C126.707 81.0264 130.414 86.8094 134.838 92.0233L135.784 93.1439L65.3222 167.96C64.0337 169.348 63.3461 171.19 63.4093 173.083C63.4725 174.977 64.2814 176.768 65.6596 178.067C67.0378 179.367 68.8735 180.068 70.7663 180.018C72.6592 179.969 74.4556 179.172 75.7639 177.802L146.208 102.998L147.385 103.88C162.586 115.288 181.47 120.664 200.398 118.971C219.325 117.278 236.957 108.636 249.895 94.7099C262.832 80.7842 270.161 62.5604 270.469 43.55C270.776 24.5397 264.041 6.08804 251.56 -8.24927H251.558ZM255.976 46.6123C254.885 62.4188 247.846 77.224 236.278 88.0442C224.71 98.8643 209.473 104.895 193.637 104.921C192.175 104.921 190.707 104.868 189.235 104.763C178.956 104.065 169.008 100.84 160.273 95.3734C151.538 89.907 144.286 82.3685 139.161 73.4263C134.035 64.4842 131.194 54.4147 130.89 44.1109C130.586 33.8071 132.827 23.5874 137.416 14.3581C142.005 5.12872 148.8 -2.82503 157.197 -8.79785C165.594 -14.7707 175.334 -18.578 185.555 -19.8822C195.775 -21.1863 206.158 -19.947 215.785 -16.2742C225.412 -12.6014 233.984 -6.60853 240.742 1.17294C246.155 7.36449 250.289 14.568 252.904 22.3673C255.518 30.1665 256.562 38.407 255.976 46.6123Z" fill="#417F56"/>
</g>
</g>
</g>
</g>
<defs>
<clipPath id="clip0_5_57">
<rect width="1440" height="1024" fill="white" transform="translate(-525 -430)"/>
</clipPath>
<clipPath id="clip1_5_57">
<rect width="390" height="345" fill="white" transform="translate(0 -118)"/>
</clipPath>
</defs>
</svg>
