<svg width="360" height="84" viewBox="0 0 360 84" fill="none" xmlns="http://www.w3.org/2000/svg">
<g filter="url(#filter0_d_1292_44845)">
<rect width="360" height="64" transform="translate(0 10)" fill="white"/>
<rect x="20" y="30" width="24" height="24" rx="4" fill="#E5F2E9"/>
<path d="M32.0003 42.5C29.887 42.5 28.167 40.78 28.167 38.6667C28.167 36.5533 29.887 34.8333 32.0003 34.8333C34.1137 34.8333 35.8337 36.5533 35.8337 38.6667C35.8337 40.78 34.1137 42.5 32.0003 42.5ZM32.0003 35.8333C30.4403 35.8333 29.167 37.1067 29.167 38.6667C29.167 40.2267 30.4403 41.5 32.0003 41.5C33.5603 41.5 34.8337 40.2267 34.8337 38.6667C34.8337 37.1067 33.5603 35.8333 32.0003 35.8333Z" fill="#417F56"/>
<path d="M37.7268 49.1667C37.4534 49.1667 37.2268 48.94 37.2268 48.6667C37.2268 46.3667 34.8801 44.5 32.0001 44.5C29.1201 44.5 26.7734 46.3667 26.7734 48.6667C26.7734 48.94 26.5468 49.1667 26.2734 49.1667C26.0001 49.1667 25.7734 48.94 25.7734 48.6667C25.7734 45.82 28.5668 43.5 32.0001 43.5C35.4334 43.5 38.2268 45.82 38.2268 48.6667C38.2268 48.94 38.0001 49.1667 37.7268 49.1667Z" fill="#417F56"/>
<rect x="48" y="30" width="24" height="24" rx="4" fill="#E5F2E9"/>
<path d="M64.1263 45.8333H57.0263C56.3663 45.8333 55.733 45.5533 55.2863 45.0667C54.8397 44.58 54.613 43.9267 54.6663 43.2667L55.2197 36.6267C55.2397 36.42 55.1663 36.22 55.0263 36.0667C54.8863 35.9133 54.693 35.8333 54.4863 35.8333H53.333C53.0597 35.8333 52.833 35.6067 52.833 35.3333C52.833 35.06 53.0597 34.8333 53.333 34.8333H54.493C54.9797 34.8333 55.4397 35.04 55.7663 35.3933C55.9463 35.5933 56.0797 35.8267 56.153 36.0867H64.4797C65.153 36.0867 65.773 36.3533 66.2263 36.8333C66.673 37.32 66.8997 37.9533 66.8463 38.6267L66.4863 43.6267C66.413 44.8467 65.3463 45.8333 64.1263 45.8333ZM56.1863 37.08L55.6663 43.3467C55.633 43.7333 55.7597 44.1 56.0197 44.3867C56.2797 44.6733 56.6397 44.8267 57.0263 44.8267H64.1263C64.8197 44.8267 65.4463 44.24 65.4997 43.5467L65.8597 38.5467C65.8863 38.1533 65.7597 37.78 65.4997 37.5067C65.2397 37.2267 64.8797 37.0733 64.4863 37.0733H56.1863V37.08Z" fill="#417F56"/>
<path d="M62.8333 49.1667C62.1 49.1667 61.5 48.5667 61.5 47.8333C61.5 47.1 62.1 46.5 62.8333 46.5C63.5667 46.5 64.1667 47.1 64.1667 47.8333C64.1667 48.5667 63.5667 49.1667 62.8333 49.1667ZM62.8333 47.5C62.6467 47.5 62.5 47.6467 62.5 47.8333C62.5 48.02 62.6467 48.1667 62.8333 48.1667C63.02 48.1667 63.1667 48.02 63.1667 47.8333C63.1667 47.6467 63.02 47.5 62.8333 47.5Z" fill="#417F56"/>
<path d="M57.5003 49.1667C56.767 49.1667 56.167 48.5667 56.167 47.8333C56.167 47.1 56.767 46.5 57.5003 46.5C58.2337 46.5 58.8337 47.1 58.8337 47.8333C58.8337 48.5667 58.2337 49.1667 57.5003 49.1667ZM57.5003 47.5C57.3137 47.5 57.167 47.6467 57.167 47.8333C57.167 48.02 57.3137 48.1667 57.5003 48.1667C57.687 48.1667 57.8337 48.02 57.8337 47.8333C57.8337 47.6467 57.687 47.5 57.5003 47.5Z" fill="#417F56"/>
<path d="M66 39.8333H58C57.7267 39.8333 57.5 39.6066 57.5 39.3333C57.5 39.06 57.7267 38.8333 58 38.8333H66C66.2733 38.8333 66.5 39.06 66.5 39.3333C66.5 39.6066 66.2733 39.8333 66 39.8333Z" fill="#417F56"/>
<path d="M144 32.9729C144 32.9172 144.032 32.8893 144.096 32.8893C144.179 32.8893 144.311 32.9438 144.492 33.0528C146.169 34.109 148.347 34.6371 151.024 34.6371C152.664 34.6371 154.261 34.3476 155.818 33.7687C156.091 33.6645 156.374 33.4949 156.666 33.26C156.908 33.0322 157.154 32.807 157.404 32.5841L157.432 32.5405C157.432 32.4654 157.281 32.4061 156.979 32.3625C156.813 32.3261 156.637 32.3007 156.452 32.2861C156.336 32.2668 156.205 32.205 156.06 32.1008C155.898 32.0015 155.813 31.8925 155.803 31.7738V31.4904C155.803 31.0229 156.009 30.5129 156.42 29.9606C156.831 29.4083 157.25 29.0898 157.678 29.005C157.908 29.1043 158.024 29.2606 158.024 29.4737C158.024 29.5682 157.999 29.7026 157.949 29.8771C157.887 30.0636 157.81 30.1653 157.717 30.1823C157.527 29.9836 157.402 29.8843 157.343 29.8843C157.189 29.8843 156.951 30.0672 156.63 30.433C156.312 30.7964 156.153 31.0616 156.153 31.2288C156.153 31.2845 156.161 31.3196 156.178 31.3341C156.351 31.4528 156.511 31.5219 156.659 31.5413C157.139 31.6115 157.392 31.6515 157.418 31.6612C157.71 31.7508 157.856 31.9397 157.856 32.228C157.856 32.6883 157.657 33.1425 157.257 33.5906C156.906 33.9612 156.497 34.2435 156.031 34.4372C155.3 34.7304 154.474 34.9762 153.555 35.1749C152.597 35.3832 151.749 35.4874 151.01 35.4874C149.019 35.4874 147.452 35.2633 146.309 34.8151C146.05 34.6964 145.889 34.6226 145.825 34.5935C145.392 34.2955 145.048 34.0472 144.791 33.8486C144.264 33.3883 144 33.0964 144 32.9729Z" fill="#417F56"/>
<path d="M158.587 26.7958C158.646 26.4033 158.741 26.1526 158.872 26.0436C158.893 26.0678 158.911 26.0848 158.925 26.0945C158.987 26.4312 159.061 26.9762 159.146 27.7296C159.232 28.4805 159.303 29.1564 159.36 29.7572C159.42 30.3579 159.449 30.6752 159.449 30.7092C159.449 30.7794 159.431 30.8908 159.396 31.0435C159.362 31.1936 159.292 31.2954 159.185 31.3487C159.109 30.7334 159.033 30.1217 158.957 29.5137C158.884 28.9057 158.803 28.3073 158.715 27.7187C158.63 27.1276 158.587 26.82 158.587 26.7958Z" fill="#417F56"/>
<path d="M161.823 30.5965C161.823 30.3979 161.907 30.0781 162.076 29.6372C162.261 29.2061 162.42 28.9129 162.553 28.7579C162.869 28.9275 163.095 29.0789 163.23 29.2121C163.416 29.4059 163.508 29.6566 163.508 29.9643C163.508 30.5311 163.318 30.9357 162.938 31.1779C162.91 31.2263 162.824 31.2639 162.682 31.2905C162.541 31.3148 162.432 31.3269 162.354 31.3269C162.185 31.3269 162.05 31.2469 161.947 31.0871C161.864 30.9393 161.823 30.7758 161.823 30.5965ZM162.268 30.2622C162.268 30.3179 162.3 30.3761 162.364 30.4366C162.431 30.4948 162.483 30.5238 162.521 30.5238H162.632C162.865 30.5238 163.015 30.4742 163.084 30.3749C163.084 30.1956 163.024 30.0382 162.903 29.9025C162.781 29.7644 162.645 29.6808 162.493 29.6518C162.343 29.9158 162.268 30.1193 162.268 30.2622Z" fill="#417F56"/>
<path d="M163.704 33.5361C163.704 33.4877 163.878 33.4138 164.225 33.3145C164.745 33.14 165.103 32.9935 165.297 32.8748C165.661 32.6568 165.909 32.4061 166.042 32.1226C166.066 32.0524 166.078 32.0124 166.078 32.0027C166.078 31.6951 166.051 31.4444 165.996 31.2506C165.967 31.1682 165.856 30.9308 165.661 30.5384C165.692 30.1459 165.745 29.9098 165.821 29.8298L165.967 29.9207C166.105 30.1387 166.184 30.2598 166.203 30.284C166.291 30.3833 166.412 30.456 166.566 30.502C166.756 30.5796 166.879 30.6062 166.933 30.582V31.3341C166.748 31.3438 166.565 31.322 166.384 31.2687V31.6103C166.384 32.0609 166.257 32.4824 166.003 32.8748C165.751 33.2672 165.426 33.547 165.027 33.7142C164.145 33.7408 163.704 33.6815 163.704 33.5361Z" fill="#417F56"/>
<path d="M166.791 30.582C166.912 30.5868 167.089 30.5372 167.322 30.433C167.555 30.3288 167.694 30.2768 167.739 30.2768C167.827 30.2768 167.979 30.3276 168.195 30.4294C168.411 30.5311 168.584 30.582 168.715 30.582V31.3341C168.565 31.3341 168.385 31.2784 168.173 31.167C167.962 31.0556 167.817 30.9998 167.739 30.9998C167.703 30.9998 167.581 31.0556 167.372 31.167C167.163 31.2784 166.99 31.3341 166.855 31.3341H166.791V30.582ZM167.796 32.5732C167.907 32.2413 168.01 32.0584 168.102 32.0245C168.185 32.0681 168.276 32.1226 168.373 32.188C168.475 32.2728 168.545 32.3491 168.583 32.417C168.51 32.7997 168.405 32.9911 168.27 32.9911C168.22 32.9911 168.13 32.939 167.999 32.8348C167.897 32.7258 167.829 32.6386 167.796 32.5732ZM166.94 32.9075C166.94 32.7936 167.028 32.6083 167.204 32.3516C167.473 32.5405 167.645 32.6737 167.721 32.7512V32.7767C167.721 32.8639 167.697 32.9705 167.65 33.0964C167.595 33.2297 167.541 33.2963 167.489 33.2963C167.43 33.2963 167.323 33.2454 167.168 33.1437C167.016 33.0419 166.94 32.9632 166.94 32.9075Z" fill="#417F56"/>
<path d="M168.555 30.582C168.94 30.582 169.352 30.5323 169.791 30.433C170.267 30.3095 170.66 30.1581 170.971 29.9788C170.363 29.7705 170.018 29.6663 169.938 29.6663C169.835 29.6663 169.676 29.7026 169.46 29.7753C169.246 29.848 169.081 29.8843 168.965 29.8843C169.081 29.4677 169.15 29.2509 169.171 29.2339C169.233 29.1152 169.389 28.9893 169.638 28.856C169.724 28.8076 169.843 28.7833 169.995 28.7833C170.059 28.7833 170.321 28.8851 170.782 29.0886C171.293 29.3211 171.599 29.4544 171.702 29.4883C172.231 29.653 172.735 29.7354 173.213 29.7354C173.258 29.7741 173.283 29.8056 173.288 29.8298C173.288 29.9195 173.226 30.0963 173.102 30.3603H172.981C172.658 30.3603 172.414 30.3349 172.25 30.284L172.229 30.3894L172.25 30.5166C172.348 30.6159 172.492 30.6656 172.682 30.6656C172.967 30.6656 173.234 30.6377 173.484 30.582V31.3341L172.703 31.3487C172.513 31.3535 172.356 31.2905 172.233 31.1597C172.111 31.0289 172.051 30.8666 172.051 30.6728C172.051 30.6413 172.056 30.5953 172.065 30.5347C172.077 30.4718 172.083 30.4233 172.083 30.3894V30.284C171.857 30.284 171.594 30.3361 171.292 30.4403C170.878 30.5953 170.555 30.7297 170.322 30.8436C169.866 31.0326 169.592 31.1391 169.499 31.1634C169.188 31.2772 168.9 31.3341 168.637 31.3341H168.555V30.582ZM170.369 32.5623C170.476 32.1796 170.587 31.9785 170.704 31.9591C170.777 31.9688 170.875 32.0088 170.996 32.079C171.148 32.1783 171.224 32.2631 171.224 32.3334C171.224 32.3867 171.199 32.4799 171.149 32.6132C171.102 32.7343 171.051 32.8191 170.996 32.8675H170.96C170.868 32.8675 170.756 32.8348 170.625 32.7694C170.454 32.7161 170.369 32.6471 170.369 32.5623Z" fill="#417F56"/>
<path d="M173.181 28.2274C173.288 27.8447 173.399 27.6436 173.516 27.6242C173.589 27.6339 173.687 27.6739 173.808 27.7441C173.96 27.8435 174.036 27.9282 174.036 27.9985C174.036 28.0518 174.011 28.145 173.961 28.2783C173.914 28.3994 173.863 28.4842 173.808 28.5326H173.772C173.68 28.5326 173.568 28.4999 173.437 28.4345C173.266 28.3812 173.181 28.3122 173.181 28.2274ZM173.362 30.582C173.693 30.5868 173.879 30.5154 173.922 30.3676C173.908 30.307 173.849 30.1932 173.747 30.026C173.659 29.8855 173.608 29.7681 173.594 29.6736C173.649 29.5161 173.714 29.3405 173.79 29.1467H173.822C173.929 29.1467 174.031 29.303 174.129 29.6154C174.231 29.8892 174.282 30.1048 174.282 30.2622C174.282 30.6038 174.228 30.8593 174.121 31.0289C173.993 31.2324 173.773 31.3341 173.462 31.3341H173.362V30.582Z" fill="#417F56"/>
<path d="M174.036 32.853C174.687 32.8118 175.071 32.7767 175.187 32.7476C175.532 32.6386 175.868 32.4218 176.196 32.0972C176.526 31.7726 176.749 31.431 176.866 31.0725C176.754 30.8739 176.647 30.6789 176.545 30.4875C176.379 30.1678 176.295 29.9582 176.295 29.8589L176.32 29.779C176.33 29.7596 176.361 29.6796 176.413 29.5391C176.453 29.4156 176.493 29.3538 176.531 29.3538C176.642 29.3538 176.774 29.5198 176.926 29.8516C177.081 30.1399 177.158 30.3567 177.158 30.502C177.158 31.4686 176.87 32.2474 176.295 32.8385C176.025 33.1049 175.745 33.2382 175.458 33.2382C175.287 33.2382 174.853 33.1764 174.157 33.0528C174.138 33.0383 174.098 32.9935 174.036 32.9184V32.853ZM175.618 28.5653C175.725 28.1826 175.837 27.9815 175.953 27.9621C176.027 27.9718 176.124 28.0118 176.246 28.0821C176.398 28.1814 176.474 28.2662 176.474 28.3364C176.474 28.3897 176.449 28.483 176.399 28.6162C176.351 28.7373 176.3 28.8221 176.246 28.8706H176.21C176.117 28.8706 176.006 28.8378 175.875 28.7724C175.704 28.7192 175.618 28.6501 175.618 28.5653Z" fill="#417F56"/>
<path d="M169.061 32.9729C169.061 32.9172 169.093 32.8893 169.157 32.8893C169.24 32.8893 169.372 32.9438 169.553 33.0528C171.23 34.109 173.408 34.6371 176.085 34.6371C177.725 34.6371 179.322 34.3476 180.879 33.7687C181.152 33.6645 181.434 33.4949 181.727 33.26C181.969 33.0322 182.215 32.807 182.464 32.5841L182.493 32.5405C182.493 32.4654 182.342 32.4061 182.04 32.3625C181.874 32.3261 181.698 32.3007 181.513 32.2861C181.396 32.2668 181.266 32.205 181.121 32.1008C180.959 32.0015 180.874 31.8925 180.864 31.7738V31.4904C180.864 31.0229 181.07 30.5129 181.481 29.9606C181.892 29.4083 182.311 29.0898 182.739 29.005C182.969 29.1043 183.085 29.2606 183.085 29.4737C183.085 29.5682 183.06 29.7026 183.01 29.8771C182.948 30.0636 182.871 30.1653 182.778 30.1823C182.588 29.9836 182.463 29.8843 182.404 29.8843C182.249 29.8843 182.012 30.0672 181.691 30.433C181.373 30.7964 181.214 31.0616 181.214 31.2288C181.214 31.2845 181.222 31.3196 181.238 31.3341C181.412 31.4528 181.572 31.5219 181.72 31.5413C182.2 31.6115 182.453 31.6515 182.479 31.6612C182.771 31.7508 182.917 31.9397 182.917 32.228C182.917 32.6883 182.717 33.1425 182.318 33.5906C181.967 33.9612 181.558 34.2435 181.092 34.4372C180.361 34.7304 179.535 34.9762 178.615 35.1749C177.658 35.3832 176.81 35.4874 176.071 35.4874C174.08 35.4874 172.513 35.2633 171.37 34.8151C171.111 34.6964 170.95 34.6226 170.886 34.5935C170.453 34.2955 170.109 34.0472 169.852 33.8486C169.325 33.3883 169.061 33.0964 169.061 32.9729Z" fill="#417F56"/>
<path d="M183.487 26.7413C183.556 26.3464 183.605 26.0993 183.633 26C183.697 26.0581 183.741 26.1623 183.765 26.3125C183.796 26.3803 183.819 26.4893 183.833 26.6395C184.075 28.4491 184.199 29.3938 184.204 29.4737C184.272 29.9461 184.326 30.2138 184.364 30.2768C184.471 30.4802 184.675 30.582 184.977 30.582V31.3341C184.549 31.3341 184.289 31.2494 184.196 31.0798C184.123 30.9756 184.048 30.7382 183.972 30.3676C183.951 30.2029 183.916 29.9473 183.869 29.6009C183.697 28.1329 183.57 27.1797 183.487 26.7413Z" fill="#417F56"/>
<path d="M184.838 30.582C185.03 30.582 185.247 30.5505 185.487 30.4875C185.774 30.4173 185.976 30.3373 186.092 30.2477C185.966 29.9691 185.904 29.8129 185.904 29.779C185.904 29.6699 185.952 29.5379 186.05 29.3829C186.152 29.2012 186.212 29.0752 186.231 29.005C186.162 28.9614 186.128 28.8839 186.128 28.7724C186.128 28.6586 186.162 28.5302 186.231 28.3873C186.298 28.2177 186.377 28.1329 186.47 28.1329C186.762 28.1329 187.101 28.3618 187.486 28.8197C187.792 29.1758 187.953 29.3635 187.967 29.3829C188.167 29.6566 188.266 29.8904 188.266 30.0842C188.266 30.1738 188.176 30.3676 187.995 30.6656C187.943 30.7334 187.848 30.7673 187.71 30.7673C187.245 30.7673 186.895 30.7079 186.663 30.5893C186.385 30.7443 186.109 30.8981 185.836 31.0507C185.446 31.2397 185.135 31.3341 184.902 31.3341H184.838V30.582ZM187.012 30.106C187.444 30.2198 187.704 30.2768 187.792 30.2768C187.856 30.2768 187.889 30.2525 187.889 30.2041C187.889 30.1048 187.778 29.9413 187.557 29.7136C187.398 29.5391 187.24 29.3998 187.083 29.2957C187.124 29.5621 187.1 29.8322 187.012 30.106ZM186.128 29.7935C186.128 29.8492 186.138 29.8795 186.157 29.8843C186.304 29.9667 186.452 29.9982 186.602 29.9788C186.764 29.8698 186.844 29.7559 186.844 29.6372C186.844 29.5379 186.819 29.4435 186.77 29.3538C186.717 29.269 186.65 29.2266 186.566 29.2266C186.493 29.2266 186.401 29.3017 186.292 29.4519C186.183 29.5997 186.128 29.7136 186.128 29.7935Z" fill="#417F56"/>
<path d="M178.943 32.8385C178.943 32.8021 178.971 32.784 179.025 32.784C179.094 32.784 179.243 32.8469 179.471 32.9729C180.73 33.6221 181.81 34.0581 182.71 34.281C183.713 34.5184 184.857 34.6371 186.142 34.6371C188.117 34.6371 189.678 34.4506 190.825 34.0775C191.975 33.7069 192.847 33.0056 193.441 31.9737C193.441 31.6515 193.341 31.2942 193.142 30.9017C192.942 30.5093 192.842 30.2913 192.842 30.2477C192.842 30.1532 192.905 29.9425 193.031 29.6154C193.022 29.5064 193.043 29.4519 193.095 29.4519C193.193 29.4519 193.341 29.7172 193.541 30.2477C193.745 30.754 193.847 31.0943 193.847 31.2687C193.93 31.9422 193.645 32.6556 192.992 33.4089C192.341 34.1647 191.298 34.7231 189.863 35.084C188.608 35.3335 187.394 35.4583 186.221 35.4583C185.287 35.4583 184.402 35.4111 183.566 35.3166C182.442 35.1615 181.6 34.935 181.039 34.6371C180.709 34.4699 180.344 34.2192 179.945 33.8849C179.764 33.7178 179.579 33.5591 179.389 33.4089C179.092 33.1376 178.943 32.9475 178.943 32.8385ZM191.57 27.7514C191.57 27.703 191.622 27.6012 191.727 27.4462C191.831 27.2887 191.898 27.21 191.926 27.21C191.967 27.21 192.067 27.2524 192.226 27.3372C192.397 27.4365 192.482 27.5176 192.482 27.5806C192.482 27.6266 192.434 27.7235 192.336 27.8713C192.248 28.0409 192.172 28.1257 192.108 28.1257C192.051 28.1257 191.947 28.0772 191.795 27.9803C191.645 27.8834 191.57 27.8071 191.57 27.7514Z" fill="#417F56"/>
<path d="M194.396 26.7958C194.456 26.4033 194.551 26.1526 194.681 26.0436C194.703 26.0678 194.72 26.0848 194.735 26.0945C194.796 26.4312 194.87 26.9762 194.956 27.7296C195.041 28.4805 195.112 29.1564 195.169 29.7572C195.229 30.3579 195.259 30.6752 195.259 30.7092C195.259 30.7794 195.241 30.8908 195.205 31.0435C195.172 31.1936 195.102 31.2954 194.995 31.3487C194.919 30.7334 194.843 30.1217 194.767 29.5137C194.693 28.9057 194.612 28.3073 194.524 27.7187C194.439 27.1276 194.396 26.82 194.396 26.7958Z" fill="#417F56"/>
<path d="M195.041 32.853C195.692 32.8118 196.076 32.7767 196.192 32.7476C196.537 32.6386 196.873 32.4218 197.201 32.0972C197.531 31.7726 197.754 31.431 197.871 31.0725C197.759 30.8739 197.652 30.6789 197.55 30.4875C197.384 30.1678 197.301 29.9582 197.301 29.8589L197.326 29.779C197.335 29.7596 197.366 29.6796 197.418 29.5391C197.459 29.4156 197.498 29.3538 197.536 29.3538C197.648 29.3538 197.779 29.5198 197.931 29.8516C198.086 30.1399 198.163 30.3567 198.163 30.502C198.163 31.4686 197.876 32.2474 197.301 32.8385C197.03 33.1049 196.751 33.2382 196.463 33.2382C196.292 33.2382 195.858 33.1764 195.162 33.0528C195.143 33.0383 195.103 32.9935 195.041 32.9184V32.853Z" fill="#417F56"/>
<path d="M198.145 32.7912C198.164 32.7767 198.2 32.7694 198.252 32.7694H198.612C199.118 32.7694 199.462 32.7452 199.642 32.6967C199.88 32.6168 200.171 32.4279 200.515 32.1299C200.876 31.8271 201.098 31.5618 201.182 31.3341C200.778 31.3341 200.509 31.3063 200.376 31.2506C200.134 31.1682 200.013 30.9575 200.013 30.6183C200.013 30.4051 200.091 30.1653 200.248 29.8989C200.417 29.6009 200.586 29.4519 200.758 29.4519C200.883 29.4519 201.027 29.6082 201.189 29.9207C201.338 30.1629 201.438 30.3833 201.488 30.582H201.677V31.3341H201.413C201.38 31.6709 201.194 32.0475 200.854 32.4642C200.507 32.8566 200.173 33.1122 199.852 33.2309C199.565 33.1824 199.236 33.1231 198.865 33.0528C198.385 32.9438 198.145 32.8566 198.145 32.7912ZM200.394 30.4403C200.506 30.5347 200.632 30.582 200.772 30.582C200.796 30.582 200.825 30.5771 200.861 30.5674C200.861 30.4924 200.843 30.4185 200.807 30.3458C200.755 30.2465 200.697 30.1968 200.633 30.1968C200.516 30.1968 200.437 30.278 200.394 30.4403Z" fill="#417F56"/>
<path d="M201.552 30.582C201.673 30.5868 201.85 30.5372 202.083 30.433C202.316 30.3288 202.455 30.2768 202.5 30.2768C202.588 30.2768 202.74 30.3276 202.956 30.4294C203.173 30.5311 203.346 30.582 203.477 30.582V31.3341C203.327 31.3341 203.147 31.2784 202.935 31.167C202.724 31.0556 202.579 30.9998 202.5 30.9998C202.465 30.9998 202.342 31.0556 202.133 31.167C201.924 31.2784 201.752 31.3341 201.616 31.3341H201.552V30.582ZM202.408 28.4999C202.519 28.1681 202.621 27.9852 202.714 27.9512C202.797 27.9949 202.888 28.0494 202.985 28.1148C203.087 28.1995 203.157 28.2759 203.195 28.3437C203.122 28.7264 203.017 28.9178 202.882 28.9178C202.832 28.9178 202.741 28.8657 202.611 28.7615C202.509 28.6525 202.441 28.5653 202.408 28.4999ZM201.552 28.8342C201.552 28.7204 201.64 28.535 201.816 28.2783C202.084 28.4672 202.257 28.6005 202.333 28.678V28.7034C202.333 28.7906 202.309 28.8972 202.261 29.0232C202.207 29.1564 202.153 29.223 202.101 29.223C202.042 29.223 201.935 29.1721 201.78 29.0704C201.628 28.9687 201.552 28.8899 201.552 28.8342Z" fill="#417F56"/>
<path d="M203.316 30.582C203.654 30.582 203.976 30.542 204.282 30.4621C204.738 30.3531 205.003 30.1968 205.077 29.9933C205.151 29.7899 205.218 29.6639 205.28 29.6154C205.301 29.63 205.312 29.6627 205.312 29.7136C205.312 29.871 205.268 30.0818 205.18 30.3458C205.247 30.37 205.305 30.3821 205.355 30.3821C205.851 30.3821 206.197 30.307 206.392 30.1569C206.513 30.0575 206.606 29.894 206.67 29.6663C206.732 29.4483 206.828 29.3126 206.959 29.2593L206.976 29.2884C206.986 29.303 206.991 29.3199 206.991 29.3393C206.991 29.4144 206.959 29.5961 206.894 29.8843C206.963 29.9933 207.033 30.06 207.105 30.0842C207.126 30.089 207.231 30.1132 207.418 30.1569L207.604 30.0842C207.604 30.0333 207.593 29.9788 207.572 29.9207C207.553 29.8601 207.543 29.8177 207.543 29.7935C207.543 29.7644 207.575 29.6506 207.639 29.4519C207.722 29.2242 207.764 29.1031 207.764 29.0886C207.816 29.0886 207.87 29.1721 207.924 29.3393C207.972 29.4725 207.996 29.5815 207.996 29.6663C207.996 29.9594 207.945 30.2247 207.842 30.4621C207.707 30.7746 207.512 30.9308 207.258 30.9308C207.132 30.9308 206.918 30.8375 206.616 30.651C206.543 30.8327 206.371 30.9732 206.1 31.0725C205.891 31.1428 205.669 31.1779 205.433 31.1779C205.2 31.1779 204.984 31.1428 204.785 31.0725C204.324 31.2469 203.894 31.3341 203.495 31.3341H203.316V30.582Z" fill="#417F56"/>
<path d="M207.878 32.853C208.529 32.8118 208.913 32.7767 209.029 32.7476C209.374 32.6386 209.71 32.4218 210.038 32.0972C210.368 31.7726 210.591 31.431 210.708 31.0725C210.596 30.8739 210.489 30.6789 210.387 30.4875C210.221 30.1678 210.138 29.9582 210.138 29.8589L210.162 29.779C210.172 29.7596 210.203 29.6796 210.255 29.5391C210.296 29.4156 210.335 29.3538 210.373 29.3538C210.484 29.3538 210.616 29.5198 210.768 29.8516C210.923 30.1399 211 30.3567 211 30.502C211 31.4686 210.713 32.2474 210.138 32.8385C209.867 33.1049 209.588 33.2382 209.3 33.2382C209.129 33.2382 208.695 33.1764 207.999 33.0528C207.98 33.0383 207.94 32.9935 207.878 32.9184V32.853Z" fill="#417F56"/>
<path d="M157.812 51.3375H156.626C155.108 51.3375 153.784 50.8612 152.652 49.9088C151.592 49.0205 150.837 47.8299 150.388 46.3371C150.191 45.6777 149.755 45.348 149.081 45.348C148.686 45.348 148.349 45.4854 148.071 45.7602C147.801 46.0257 147.667 46.3554 147.667 46.7492C147.667 47.143 147.801 47.4819 148.071 47.7658C148.349 48.0405 148.686 48.1779 149.081 48.1779H151.251V51.3375H149.23C147.972 51.3375 146.885 50.9024 145.969 50.0324C145.062 49.1624 144.608 48.068 144.608 46.7492C144.608 45.4946 145.044 44.4231 145.915 43.5347C146.786 42.6464 147.842 42.2022 149.081 42.2022C150.042 42.2022 150.923 42.5044 151.722 43.1089C152.522 43.7042 153.07 44.4734 153.366 45.4167C153.923 47.2575 155.01 48.1779 156.626 48.1779H157.812V51.3375Z" fill="#417F56"/>
<path d="M163.687 39.6608H162.151C161.728 39.6608 161.365 39.5097 161.059 39.2075C160.754 38.8961 160.601 38.5252 160.601 38.0948C160.601 37.6644 160.754 37.2935 161.059 36.9821C161.365 36.6707 161.728 36.515 162.151 36.515C162.573 36.515 162.932 36.6707 163.228 36.9821C163.534 37.2935 163.687 37.6644 163.687 38.0948V39.6608ZM168.995 51.3375H167.796C166.547 51.3375 165.398 50.9482 164.347 50.1698V51.3375H156.626V48.1779H161.261V42.2984H164.347V44.2628C164.347 45.3893 164.666 46.3234 165.303 47.0652C165.941 47.807 166.772 48.1779 167.796 48.1779H168.995V51.3375Z" fill="#417F56"/>
<path d="M180.07 51.3375H178.871C177.623 51.3375 176.473 50.9482 175.422 50.1698V51.3375H167.702V48.1779H172.336V42.2984H175.422V44.2628C175.422 45.3893 175.741 46.3234 176.378 47.0652C177.016 47.807 177.847 48.1779 178.871 48.1779H180.07V51.3375ZM177.537 56.9285H175.974C175.552 56.9285 175.188 56.7728 174.883 56.4614C174.587 56.1501 174.438 55.7792 174.438 55.3487C174.438 54.9091 174.587 54.5382 174.883 54.236C175.188 53.9338 175.552 53.7827 175.974 53.7827C176.405 53.7827 176.774 53.9338 177.079 54.236C177.384 54.5382 177.537 54.9091 177.537 55.3487V56.9285ZM174.034 56.9285H172.485C172.054 56.9285 171.685 56.7728 171.38 56.4614C171.083 56.1501 170.935 55.7792 170.935 55.3487C170.935 54.9091 171.083 54.5382 171.38 54.236C171.685 53.9338 172.054 53.7827 172.485 53.7827C172.907 53.7827 173.271 53.9338 173.576 54.236C173.881 54.5382 174.034 54.9091 174.034 55.3487V56.9285Z" fill="#417F56"/>
<path d="M194.082 51.3375H178.777V48.1779H190.822C190.561 47.372 190.094 46.7126 189.421 46.1997C188.756 45.6869 187.993 45.4305 187.13 45.4305L182.536 45.4442V42.2984H187.13C189.043 42.2984 190.678 42.9898 192.035 44.3727C193.4 45.7464 194.082 47.4132 194.082 49.373V51.3375ZM186.187 40.6774H184.651C184.229 40.6774 183.865 40.5263 183.56 40.2241C183.254 39.9127 183.102 39.5418 183.102 39.1114C183.102 38.6809 183.254 38.31 183.56 37.9986C183.865 37.6873 184.229 37.5316 184.651 37.5316C185.073 37.5316 185.433 37.6873 185.729 37.9986C186.034 38.31 186.187 38.6809 186.187 39.1114V40.6774Z" fill="#417F56"/>
<path d="M203.843 51.3375H202.644C201.405 51.3375 200.255 50.9482 199.195 50.1698V50.9253C199.195 52.9035 198.494 54.5749 197.093 55.9394C195.701 57.3131 193.958 58 191.865 58V54.8542C193.114 54.8542 194.134 54.4741 194.924 53.714C195.723 52.9539 196.123 52.0243 196.123 50.9253V42.2984H199.195V44.2628C199.195 45.3893 199.514 46.3234 200.152 47.0652C200.798 47.807 201.629 48.1779 202.644 48.1779H203.843V51.3375Z" fill="#417F56"/>
<path d="M210.364 51.3375H202.644V48.1779H207.279V42.2984H210.364V51.3375ZM210.499 39.4411H208.936C208.514 39.4411 208.15 39.2854 207.845 38.974C207.549 38.6626 207.4 38.2917 207.4 37.8613C207.4 37.4217 207.549 37.0508 207.845 36.7486C208.15 36.4463 208.514 36.2952 208.936 36.2952C209.367 36.2952 209.736 36.4463 210.041 36.7486C210.346 37.0508 210.499 37.4217 210.499 37.8613V39.4411ZM206.996 39.4411H205.447C205.016 39.4411 204.647 39.2854 204.342 38.974C204.045 38.6626 203.897 38.2917 203.897 37.8613C203.897 37.4217 204.045 37.0508 204.342 36.7486C204.647 36.4463 205.016 36.2952 205.447 36.2952C205.869 36.2952 206.233 36.4463 206.538 36.7486C206.843 37.0508 206.996 37.4217 206.996 37.8613V39.4411Z" fill="#417F56"/>
<path d="M224.753 45.2743C223.904 44.9158 223.056 44.6533 222.283 44.058C222.979 44.0196 223.509 44.3461 224.096 44.4805C223.26 43.7956 222.366 43.1874 221.715 42.2977C222.405 42.7522 223.094 43.2002 223.783 43.6547C223.802 43.6355 223.821 43.6227 223.834 43.6035C223.368 43.117 222.909 42.6369 222.443 42.1504C222.462 42.1184 222.481 42.0864 222.5 42.0544C222.692 42.1568 222.915 42.2208 223.068 42.3681C223.687 42.9506 224.281 43.5587 224.881 44.1604C225.04 44.3205 225.181 44.4869 225.359 44.6789C225.487 44.5573 225.583 44.4549 225.685 44.3717C225.864 44.2372 225.832 44.1092 225.723 43.9428C224.925 42.7393 223.866 41.8048 222.634 41.0942C221.69 40.5501 220.669 40.1404 219.686 39.6667C219.265 39.4619 218.85 39.2443 218.429 39.033C218.448 38.9818 218.461 38.9306 218.48 38.8794C218.793 38.9434 219.112 39.001 219.495 39.0778C218.888 38.5593 218.206 38.22 217.823 37.5607C217.842 37.5351 217.855 37.5031 217.874 37.4775C218.64 37.9512 219.399 38.4249 220.248 38.9498C219.68 38.1752 219.169 37.4839 218.665 36.7926C218.691 36.767 218.716 36.7414 218.748 36.7157C219.01 36.9718 219.284 37.2086 219.527 37.4775C220.178 38.2072 220.79 38.9754 221.467 39.6731C221.779 39.9932 222.207 40.198 222.577 40.4605C223.081 40.8126 223.579 41.171 224.128 41.5615C224.089 41.4463 224.077 41.3695 224.038 41.3119C222.985 39.5323 221.83 37.8168 220.363 36.3445C220.107 36.0884 219.763 35.9028 219.431 35.7491C218.863 35.4931 218.263 35.3011 217.682 35.077C217.331 34.9426 216.987 34.789 216.744 34.4817C216.757 34.4433 216.77 34.4113 216.783 34.3729C217.287 34.5009 217.797 34.6353 218.301 34.7634C217.312 33.8672 216.234 33.0606 215.57 31.8572C216.47 32.5997 217.37 33.3423 218.263 34.0912C218.289 34.072 218.314 34.0464 218.333 34.0272C217.848 33.3359 217.363 32.6381 216.885 31.9468C216.917 31.9148 216.948 31.8828 216.98 31.8508C217.134 31.9788 217.312 32.0876 217.433 32.2412C217.957 32.9198 218.435 33.6431 218.991 34.3025C219.463 34.8594 220.024 35.3459 220.516 35.8836C220.969 36.3765 221.384 36.9014 221.811 37.4135C221.875 37.4903 221.945 37.5735 222.009 37.6503C222.035 37.6375 222.06 37.6247 222.092 37.6055C222.009 37.4135 221.926 37.215 221.837 37.0294C221.416 36.1524 221.045 35.237 220.548 34.4049C219.871 33.2783 219.042 32.2605 217.976 31.4667C217.701 31.2619 217.35 31.1722 217.025 31.0378C216.54 30.833 216.017 30.6985 215.621 30.2505C216.195 30.116 216.655 30.5001 217.261 30.5961C216.731 30.02 215.953 29.8088 215.698 29.0918C215.723 29.0534 215.742 29.0214 215.768 28.983C216.017 29.1238 216.272 29.2711 216.566 29.4375C216.336 29.0278 216.125 28.6565 215.921 28.2789C215.94 28.2597 215.959 28.2404 215.978 28.2212C216.112 28.3301 216.266 28.4197 216.368 28.5477C217.025 29.3735 217.657 30.2184 218.32 31.0314C218.901 31.7419 219.514 32.4333 220.158 33.1054C219.929 32.5741 219.718 32.0364 219.463 31.5179C219.144 30.8586 218.908 30.1544 218.372 29.6231C217.644 28.9062 216.929 28.1828 216.215 27.4531C216.01 27.2418 215.838 27.005 215.691 26.7361C216.553 27.1458 217.14 27.8884 217.829 28.5093C217.855 28.4901 217.88 28.4773 217.906 28.4581C217.516 27.6579 217.127 26.8642 216.731 26.064C216.763 26.0448 216.802 26.0192 216.834 26C217.453 26.9218 218.078 27.8436 218.697 28.7654C218.716 28.759 218.742 28.7526 218.761 28.7462C218.64 28.0868 218.518 27.4339 218.403 26.7746C218.442 26.7618 218.48 26.749 218.518 26.7425C218.569 26.877 218.633 27.005 218.659 27.1458C218.78 27.7411 218.85 28.3493 219.022 28.9254C219.246 29.6551 219.546 30.3593 219.833 31.0634C219.992 31.4603 220.197 31.8444 220.433 32.2284C220.458 31.0186 220.095 29.828 220.235 28.6181C220.273 28.6117 220.305 28.6053 220.343 28.5925C220.452 28.8806 220.554 29.1686 220.663 29.4567C220.682 29.4567 220.701 29.4567 220.72 29.4567C220.816 28.9318 220.911 28.4005 221.02 27.8244C221.326 28.042 221.307 28.2853 221.282 28.5093C221.173 29.4375 221.052 30.3657 220.937 31.2875C220.924 31.3771 220.937 31.4667 220.969 31.5627C221.32 30.9802 221.454 30.2889 221.926 29.7896C221.958 29.796 221.99 29.8088 222.015 29.8152C222.009 29.9112 222.022 30.0136 221.99 30.0968C221.83 30.5833 221.671 31.0634 221.492 31.5435C221.199 32.3245 221.039 33.1246 221.179 33.9504C221.256 34.3921 221.46 34.8146 221.645 35.2306C222.111 36.2933 222.59 37.3495 223.081 38.3993C223.304 38.8794 223.56 39.3403 223.802 39.814C223.841 39.8076 223.872 39.7948 223.911 39.7884C223.866 39.5323 223.841 39.2699 223.783 39.0138C223.636 38.3993 223.47 37.7848 223.317 37.1702C223.17 36.5941 223.011 36.0244 222.89 35.4419C222.819 35.0962 222.807 34.7377 222.768 34.3857C222.813 34.3729 222.851 34.3665 222.896 34.3537C223.056 34.7313 223.222 35.1154 223.413 35.5763C223.521 34.9234 223.617 34.3473 223.713 33.7712C223.745 33.7712 223.777 33.7776 223.802 33.7776C223.847 34.5585 223.892 35.3459 223.943 36.1268C223.968 36.1332 223.994 36.1332 224.026 36.1396C224.249 35.6403 224.306 35.0578 224.823 34.6865C224.785 34.917 224.76 35.141 224.708 35.3715C224.523 36.1972 224.274 37.0166 224.153 37.8552C224.089 38.3161 224.223 38.8026 224.294 39.2763C224.389 39.8972 224.402 40.5629 224.651 41.1134C225.079 42.0544 225.666 42.9186 226.208 43.8596C226.368 43.7059 226.457 43.6099 226.559 43.5203C226.712 43.3859 226.712 43.2579 226.636 43.0722C226.355 42.4193 226.087 41.76 225.832 41.1006C225.755 40.8958 225.742 40.6717 225.704 40.4541C225.742 40.4413 225.774 40.4221 225.812 40.4093C226.029 40.819 226.253 41.2222 226.521 41.7215C226.47 40.7101 226.215 39.7884 226.489 38.8602C226.859 39.4555 226.731 40.1788 226.987 40.8894C227.133 40.3709 227.261 39.9228 227.389 39.4619C227.708 39.5515 227.708 39.75 227.663 39.9548C227.542 40.5565 227.401 41.1582 227.28 41.76C227.229 42.0288 227.21 42.3041 227.185 42.5793C227.178 42.6433 227.229 42.7073 227.267 42.829C228.678 41.4399 230.056 40.0828 231.435 38.7257C230.726 37.932 230.49 37.023 230.72 36.0308C230.809 35.6531 231.007 35.2563 231.269 34.9746C233.732 32.2797 236.221 29.6039 238.703 26.9218C238.729 26.8898 238.767 26.8706 238.799 26.845C239.227 27.0882 239.284 27.3955 238.978 27.7476C237.102 29.9112 235.219 32.0748 233.349 34.2449C233.221 34.3921 233.049 34.5521 233.253 34.7698C233.426 34.949 233.764 34.9874 233.955 34.821C234.223 34.5777 234.472 34.3153 234.728 34.0592C236.534 32.222 238.346 30.3849 240.152 28.5477C240.228 28.4709 240.286 28.3813 240.35 28.3109C240.828 28.5669 240.892 28.8742 240.567 29.2455C238.71 31.3835 236.853 33.5279 235.002 35.6659C234.849 35.8388 234.606 36.018 234.881 36.2805C235.079 36.4725 235.423 36.4405 235.653 36.21C236.712 35.1346 237.765 34.0464 238.837 32.9774C239.897 31.9276 240.969 30.897 242.06 29.8408C242.411 30.02 242.481 30.3529 242.181 30.6985C240.318 32.843 238.454 34.9938 236.591 37.1446C236.451 37.3047 236.189 37.4647 236.438 37.7335C236.642 37.9576 236.98 37.9448 237.236 37.6951C238.033 36.895 238.825 36.0884 239.616 35.2819C240.86 34.0144 242.105 32.7405 243.355 31.4731C243.432 31.3963 243.509 31.3323 243.655 31.1914C243.783 31.4475 243.892 31.6651 244 31.8892C243.253 32.6957 242.526 33.4895 241.798 34.2769C240.069 36.146 238.32 37.996 236.623 39.8908C235.583 41.0558 233.962 41.0814 232.973 40.1084C232.941 40.0764 232.909 40.0572 232.851 40.0124C232.749 40.134 232.641 40.2493 232.545 40.3709C231.626 41.4655 230.707 42.5601 229.788 43.6419C229.648 43.8084 229.61 43.9492 229.686 44.1604C229.839 44.6021 229.954 45.0566 230.095 45.5047C230.12 45.5943 230.171 45.6775 230.241 45.7608C230.343 45.031 230.069 44.2821 230.414 43.4947C230.503 43.802 230.605 44.0388 230.637 44.2821C230.72 44.9798 230.752 45.6775 230.848 46.3753C230.975 47.3035 231.16 48.2252 231.709 49.019C232.2 49.736 232.666 50.4785 233.19 51.1762C233.413 51.4771 233.732 51.7139 234.026 51.9572C234.715 52.5269 235.41 53.0838 236.106 53.6471C236.17 53.6983 236.24 53.7304 236.336 53.788C235.64 52.9558 234.938 52.1748 234.3 51.3427C233.662 50.5169 232.947 49.7423 232.507 48.7822C232.539 48.7566 232.577 48.7246 232.609 48.6989C233.056 49.2303 233.502 49.7552 234 50.3377C233.643 49.4735 233.317 48.6797 232.992 47.8796C233.03 47.8604 233.068 47.8476 233.107 47.8284C233.617 48.8078 234.032 49.8448 234.747 50.7089C234.632 49.96 234.517 49.2174 234.402 48.4685C234.842 48.7886 234.868 49.2559 234.97 49.6847C235.079 50.1584 235.168 50.6385 235.257 51.1186C235.391 51.8228 235.653 52.4565 236.176 52.975C236.872 53.6727 237.491 54.4729 238.25 55.0938C239.029 55.7275 239.922 56.2204 240.79 56.7389C241.467 57.1358 242.181 57.4751 242.877 57.8336C242.941 57.8656 242.998 57.9104 243.024 58C242.59 57.8208 242.13 57.6735 241.715 57.4559C240.586 56.8542 239.482 56.1948 238.346 55.5995C237.267 55.0362 236.183 54.4537 235.047 54.0184C234.421 53.7816 233.687 53.8264 233.005 53.7688C232.507 53.7239 232.009 53.7303 231.511 53.6855C231.339 53.6727 231.173 53.5831 231.007 53.4743C231.556 53.1542 232.143 53.3399 232.717 53.2374C231.907 52.9878 231.103 52.7381 230.292 52.4885C230.299 52.4501 230.305 52.4181 230.318 52.3797C230.618 52.2068 230.931 52.2901 231.243 52.3605C231.543 52.4245 231.843 52.5077 232.162 52.5141C231.409 52.0532 230.656 51.5859 229.903 51.125C230.688 51.2018 231.352 51.5667 232.022 51.9124C232.8 52.3221 233.56 52.7766 234.338 53.1926C234.67 53.3655 235.027 53.4935 235.372 53.6407C235.391 53.6151 235.404 53.5895 235.423 53.5639C235.187 53.3655 234.951 53.1734 234.715 52.9686C233.19 51.6371 231.447 50.6449 229.629 49.7936C229.176 49.5823 228.62 49.5823 228.11 49.4735C227.612 49.3711 227.114 49.2751 226.623 49.1534C226.47 49.115 226.329 49.0062 226.132 48.9038C226.623 48.6093 227.07 48.8974 227.593 48.8462C227.05 48.5645 226.578 48.3277 226.087 48.078C225.595 48.6605 225.11 49.2366 224.625 49.8128C222.545 52.2965 220.465 54.7738 218.384 57.2575C217.867 57.872 217.21 58.0832 216.438 57.8784C215.653 57.6671 215.213 57.123 215.053 56.3293C214.887 55.5099 215.111 54.8442 215.717 54.2489C218.659 51.3747 221.581 48.4877 224.511 45.6007C224.555 45.4855 224.638 45.3895 224.753 45.2743ZM229.405 44.0516C228.997 44.5317 228.627 44.9542 228.276 45.3959C228.218 45.4663 228.218 45.6391 228.263 45.7287C228.716 46.6505 229.31 47.4763 230.024 48.2124C230.216 48.4109 230.382 48.6349 230.567 48.8334C230.796 49.083 231.045 49.3135 231.288 49.5567C231.326 49.5247 231.364 49.4991 231.403 49.4671C231.071 48.8846 230.739 48.2957 230.401 47.7131C229.935 46.9066 229.456 46.1 229.003 45.2871C228.92 45.1398 228.927 44.935 228.888 44.7558C228.933 44.7365 228.978 44.7173 229.022 44.6981C229.303 45.1526 229.59 45.6071 229.871 46.0552C229.897 46.0424 229.916 46.036 229.941 46.0232C229.775 45.3959 229.597 44.7558 229.405 44.0516ZM226.802 47.1498C228.033 48.5133 229.603 49.2687 231.186 50.0176C229.903 48.859 228.837 47.4571 227.267 46.5865C227.114 46.7786 226.961 46.9642 226.802 47.1498Z" fill="#417F56"/>
<g clip-path="url(#clip0_1292_44845)">
<path d="M337 37.75H319C318.59 37.75 318.25 37.41 318.25 37C318.25 36.59 318.59 36.25 319 36.25H337C337.41 36.25 337.75 36.59 337.75 37C337.75 37.41 337.41 37.75 337 37.75Z" fill="#417F56"/>
<path d="M337 42.75H319C318.59 42.75 318.25 42.41 318.25 42C318.25 41.59 318.59 41.25 319 41.25H337C337.41 41.25 337.75 41.59 337.75 42C337.75 42.41 337.41 42.75 337 42.75Z" fill="#417F56"/>
<path d="M337 47.75H319C318.59 47.75 318.25 47.41 318.25 47C318.25 46.59 318.59 46.25 319 46.25H337C337.41 46.25 337.75 46.59 337.75 47C337.75 47.41 337.41 47.75 337 47.75Z" fill="#417F56"/>
</g>
</g>
<defs>
<filter id="filter0_d_1292_44845" x="-10" y="0" width="380" height="84" filterUnits="userSpaceOnUse" color-interpolation-filters="sRGB">
<feFlood flood-opacity="0" result="BackgroundImageFix"/>
<feColorMatrix in="SourceAlpha" type="matrix" values="0 0 0 0 0 0 0 0 0 0 0 0 0 0 0 0 0 0 127 0" result="hardAlpha"/>
<feOffset/>
<feGaussianBlur stdDeviation="5"/>
<feComposite in2="hardAlpha" operator="out"/>
<feColorMatrix type="matrix" values="0 0 0 0 0 0 0 0 0 0 0 0 0 0 0 0 0 0 0.15 0"/>
<feBlend mode="normal" in2="BackgroundImageFix" result="effect1_dropShadow_1292_44845"/>
<feBlend mode="normal" in="SourceGraphic" in2="effect1_dropShadow_1292_44845" result="shape"/>
</filter>
<clipPath id="clip0_1292_44845">
<rect width="24" height="24" fill="white" transform="translate(316 30)"/>
</clipPath>
</defs>
</svg>
