<svg width="32" height="32" viewBox="0 0 32 32" fill="none" xmlns="http://www.w3.org/2000/svg">
<path d="M23.2665 30.3334C21.7598 30.3334 20.1732 29.9734 18.5332 29.2801C16.9332 28.6001 15.3198 27.6667 13.7465 26.5334C12.1865 25.3867 10.6798 24.1068 9.25317 22.7067C7.83984 21.2801 6.55984 19.7734 5.4265 18.2267C4.27984 16.6267 3.35984 15.0267 2.7065 13.4801C2.01317 11.8267 1.6665 10.2267 1.6665 8.72008C1.6665 7.68008 1.85317 6.69341 2.21317 5.77341C2.5865 4.82675 3.1865 3.94675 3.99984 3.18675C5.0265 2.17341 6.19984 1.66675 7.45317 1.66675C7.97317 1.66675 8.5065 1.78675 8.95984 2.00008C9.47984 2.24008 9.91984 2.60008 10.2398 3.08008L13.3332 7.44008C13.6132 7.82675 13.8265 8.20008 13.9732 8.57341C14.1465 8.97341 14.2398 9.37341 14.2398 9.76008C14.2398 10.2667 14.0932 10.7601 13.8132 11.2267C13.6132 11.5867 13.3065 11.9734 12.9198 12.3601L12.0132 13.3067C12.0265 13.3467 12.0398 13.3734 12.0532 13.4001C12.2132 13.6801 12.5332 14.1601 13.1465 14.8801C13.7998 15.6267 14.4132 16.3067 15.0265 16.9334C15.8132 17.7067 16.4665 18.3201 17.0798 18.8267C17.8398 19.4667 18.3332 19.7867 18.6265 19.9334L18.5998 20.0001L19.5732 19.0401C19.9865 18.6267 20.3865 18.3201 20.7732 18.1201C21.5065 17.6667 22.4398 17.5867 23.3732 17.9734C23.7198 18.1201 24.0932 18.3201 24.4932 18.6001L28.9198 21.7467C29.4132 22.0801 29.7732 22.5067 29.9865 23.0134C30.1865 23.5201 30.2798 23.9867 30.2798 24.4534C30.2798 25.0934 30.1332 25.7334 29.8532 26.3334C29.5732 26.9334 29.2265 27.4534 28.7865 27.9334C28.0265 28.7734 27.1998 29.3734 26.2398 29.7601C25.3198 30.1334 24.3198 30.3334 23.2665 30.3334ZM7.45317 3.66675C6.71984 3.66675 6.03984 3.98675 5.3865 4.62675C4.77317 5.20008 4.3465 5.82675 4.07984 6.50675C3.79984 7.20008 3.6665 7.93341 3.6665 8.72008C3.6665 9.96008 3.95984 11.3067 4.5465 12.6934C5.1465 14.1067 5.9865 15.5734 7.05317 17.0401C8.11984 18.5067 9.33317 19.9334 10.6665 21.2801C11.9998 22.6001 13.4398 23.8267 14.9198 24.9067C16.3598 25.9601 17.8398 26.8134 19.3065 27.4267C21.5865 28.4001 23.7198 28.6267 25.4798 27.8934C26.1598 27.6134 26.7598 27.1867 27.3065 26.5734C27.6132 26.2401 27.8532 25.8801 28.0532 25.4534C28.2132 25.1201 28.2932 24.7734 28.2932 24.4267C28.2932 24.2134 28.2532 24.0001 28.1465 23.7601C28.1065 23.6801 28.0265 23.5334 27.7732 23.3601L23.3465 20.2134C23.0798 20.0267 22.8398 19.8934 22.6132 19.8001C22.3198 19.6801 22.1998 19.5601 21.7465 19.8401C21.4798 19.9734 21.2398 20.1734 20.9732 20.4401L19.9598 21.4401C19.4398 21.9467 18.6398 22.0667 18.0265 21.8401L17.6665 21.6801C17.1198 21.3867 16.4798 20.9334 15.7732 20.3334C15.1332 19.7867 14.4398 19.1467 13.5998 18.3201C12.9465 17.6534 12.2932 16.9467 11.6132 16.1601C10.9865 15.4267 10.5332 14.8001 10.2532 14.2801L10.0932 13.8801C10.0132 13.5734 9.9865 13.4001 9.9865 13.2134C9.9865 12.7334 10.1598 12.3067 10.4932 11.9734L11.4932 10.9334C11.7598 10.6667 11.9598 10.4134 12.0932 10.1867C12.1998 10.0134 12.2398 9.86675 12.2398 9.73342C12.2398 9.62675 12.1998 9.46675 12.1332 9.30675C12.0398 9.09341 11.8932 8.85341 11.7065 8.60008L8.61317 4.22675C8.47984 4.04008 8.31984 3.90675 8.11984 3.81341C7.9065 3.72008 7.67984 3.66675 7.45317 3.66675ZM18.5998 20.0134L18.3865 20.9201L18.7465 19.9867C18.6798 19.9734 18.6265 19.9867 18.5998 20.0134Z" fill="#353535"/>
<path d="M24.6667 12.9999C24.12 12.9999 23.6667 12.5466 23.6667 11.9999C23.6667 11.5199 23.1867 10.5199 22.3867 9.66658C21.6 8.82659 20.7333 8.33325 20 8.33325C19.4533 8.33325 19 7.87992 19 7.33325C19 6.78659 19.4533 6.33325 20 6.33325C21.2933 6.33325 22.6533 7.02658 23.84 8.29325C24.9467 9.47992 25.6667 10.9333 25.6667 11.9999C25.6667 12.5466 25.2133 12.9999 24.6667 12.9999Z" fill="#353535"/>
<path d="M29.3333 13.0001C28.7867 13.0001 28.3333 12.5467 28.3333 12.0001C28.3333 7.40008 24.6 3.66675 20 3.66675C19.4533 3.66675 19 3.21341 19 2.66675C19 2.12008 19.4533 1.66675 20 1.66675C25.6933 1.66675 30.3333 6.30675 30.3333 12.0001C30.3333 12.5467 29.88 13.0001 29.3333 13.0001Z" fill="#353535"/>
</svg>
