<svg width="33" height="32" viewBox="0 0 33 32" fill="none" xmlns="http://www.w3.org/2000/svg">
<path d="M16.4998 30.3334C8.59317 30.3334 2.1665 23.9067 2.1665 16.0001C2.1665 8.09342 8.59317 1.66675 16.4998 1.66675C24.4065 1.66675 30.8332 8.09342 30.8332 16.0001C30.8332 23.9067 24.4065 30.3334 16.4998 30.3334ZM16.4998 3.66675C9.69984 3.66675 4.1665 9.20008 4.1665 16.0001C4.1665 22.8001 9.69984 28.3334 16.4998 28.3334C23.2998 28.3334 28.8332 22.8001 28.8332 16.0001C28.8332 9.20008 23.2998 3.66675 16.4998 3.66675Z" fill="#353535"/>
<path d="M21.4467 21.2401C21.2734 21.2401 21.1 21.2001 20.94 21.0934L16.8067 18.6268C15.78 18.0134 15.02 16.6668 15.02 15.4801V10.0134C15.02 9.46676 15.4734 9.01343 16.02 9.01343C16.5667 9.01343 17.02 9.46676 17.02 10.0134V15.4801C17.02 15.9601 17.42 16.6668 17.8334 16.9068L21.9667 19.3734C22.4467 19.6534 22.5934 20.2668 22.3134 20.7468C22.1134 21.0668 21.78 21.2401 21.4467 21.2401Z" fill="#353535"/>
</svg>
