<svg width="33" height="32" viewBox="0 0 33 32" fill="none" xmlns="http://www.w3.org/2000/svg">
<path d="M16.4998 18.8933C13.6598 18.8933 11.3398 16.5867 11.3398 13.7333C11.3398 10.88 13.6598 8.58667 16.4998 8.58667C19.3398 8.58667 21.6598 10.8933 21.6598 13.7467C21.6598 16.6 19.3398 18.8933 16.4998 18.8933ZM16.4998 10.5867C14.7665 10.5867 13.3398 12 13.3398 13.7467C13.3398 15.4933 14.7532 16.9067 16.4998 16.9067C18.2465 16.9067 19.6598 15.4933 19.6598 13.7467C19.6598 12 18.2332 10.5867 16.4998 10.5867Z" fill="#353535"/>
<path d="M16.5002 30.3467C14.5269 30.3467 12.5402 29.6001 10.9936 28.1201C7.06023 24.3334 2.71357 18.2934 4.35357 11.1067C5.83357 4.58675 11.5269 1.66675 16.5002 1.66675C16.5002 1.66675 16.5002 1.66675 16.5136 1.66675C21.4869 1.66675 27.1802 4.58675 28.6602 11.1201C30.2869 18.3067 25.9402 24.3334 22.0069 28.1201C20.4602 29.6001 18.4736 30.3467 16.5002 30.3467ZM16.5002 3.66675C12.6202 3.66675 7.63357 5.73341 6.31357 11.5467C4.87357 17.8267 8.82023 23.2401 12.3936 26.6667C14.7002 28.8934 18.3136 28.8934 20.6202 26.6667C24.1802 23.2401 28.1269 17.8267 26.7136 11.5467C25.3802 5.73341 20.3802 3.66675 16.5002 3.66675Z" fill="#353535"/>
</svg>
